# xmcd CD database file
# Copyright (C) 1993-1996 Ti Kan
# 
# Track frame offsets:
# 150
# 13905
# 28462
# 43970
# 57817
# 73515
# 86525
# 104427
# 120260
# 137887
# 
# Disc length: 2034 seconds
# 
# Revision: 0
# Processed by: cddbd v1.4b41PL1 Copyright (c) Steve Scherf et al.
# Submitted via: SuperSonic v3.0
# 
DISCID=8c07f00a
DTITLE=The Oak Ridge Boys - Greatest Hits Volume Three
DYEAR=1900
DGENRE=
TTITLE0=Gonna Take a Lot of River
TTITLE1=True Heart
TTITLE2=Little Things
TTITLE3=This Crazy Love
TTITLE4=Come On In (You Did the Best You Could Do)
TTITLE5=Bobbie Sue
TTITLE6=It Takes a Little Rain (To Make a Love Grow)
TTITLE7=Touch a Hand, Make a Friend
TTITLE8=Bridges and Walls
TTITLE9=Take Pride in America
EXTD=
EXTT0=
EXTT1=
EXTT2=
EXTT3=
EXTT4=
EXTT5=
EXTT6=
EXTT7=
EXTT8=
EXTT9=
PLAYORDER=
